<?xml version="1.0" encoding="UTF-8" standalone="no"?>
<svg
   width="16"
   height="16"
   viewBox="0 0 16 16"
   fill="none"
   version="1.1"
   id="svg3"
   xml:space="preserve"
   xmlns="http://www.w3.org/2000/svg"
   xmlns:svg="http://www.w3.org/2000/svg"><defs
     id="defs3" /><rect
     style="fill:#e0e0e0;fill-opacity:1;stroke-width:0"
     id="rect3"
     width="11.52"
     x="2.2353094"
     y="2.24"
     height="2.8800001" /><rect
     style="fill:#e0e0e0;fill-opacity:1;stroke-width:0"
     id="rect3-5"
     width="11.52"
     x="2.2353094"
     y="10.879999"
     height="2.8800001" /><rect
     style="fill:#e0e0e0;fill-opacity:1;stroke-width:0"
     id="rect3-5-1"
     width="2.8800001"
     x="10.87531"
     y="2.24"
     height="11.52" /><rect
     style="fill:#e0e0e0;fill-opacity:1;stroke-width:0"
     id="rect3-5-1-7"
     width="2.8800001"
     x="2.2353094"
     y="2.24"
     height="11.52" /><g
     style="fill:none"
     id="g4"
     transform="matrix(1.44,0,0,1.44,-20.80469,-9.28)"><rect
       style="fill:#ff5f5f;fill-opacity:1;stroke:#ff5f5f;stroke-width:1.44;stroke-linejoin:round;stroke-dasharray:none;stroke-opacity:1"
       id="rect14-82-4"
       width="2.1600001"
       height="2.1600001"
       x="18.92"
       y="10.92" /></g><rect
     style="fill:#e0e0e0;fill-opacity:1;stroke-width:0"
     id="rect5"
     width="8.6999998"
     height="1.5"
     x="3.6500001"
     y="0.82794309" /><rect
     style="fill:#e0e0e0;fill-opacity:1;stroke-width:0"
     id="rect5-2"
     width="8.6999998"
     height="1.5"
     x="3.6500001"
     y="13.7" /><path
     style="fill:#e0e0e0;fill-opacity:1;stroke-width:0"
     id="path6"
     d="M 10.949548,8.2587324 9.7346478,7.5526521 8.5197476,6.8465719 9.7386812,6.1474776 10.957615,5.4483833 l -0.004,1.4051746 z"
     transform="matrix(-0.64,0,0,-1,20.712873,14.848901)" /><path
     style="fill:#e0e0e0;fill-opacity:1;stroke-width:0"
     id="path6-1"
     d="M 10.949548,8.2587324 9.7346478,7.5526521 8.5197476,6.8465719 9.7386812,6.1474776 10.957615,5.4483833 l -0.004,1.4051746 z"
     transform="matrix(0.64,0,0,1,-4.7526385,1.1464427)" /></svg>
