<?xml version="1.0" encoding="UTF-8" standalone="no"?>
<svg
   width="16"
   height="16"
   viewBox="0 0 16 16"
   fill="none"
   version="1.1"
   id="svg3"
   xmlns="http://www.w3.org/2000/svg"
   xmlns:svg="http://www.w3.org/2000/svg">
  <defs
     id="defs3" />
  <g
     id="g14"
     transform="matrix(0.726,0,0,0.726,5.9750839,6.325457)">
    <rect
       style="fill:#5fff97;fill-opacity:1;stroke:#ff5f5f;stroke-width:0;stroke-linejoin:miter;stroke-dasharray:none;stroke-opacity:1"
       id="rect17"
       width="3.2"
       height="3.2"
       x="0.39499998"
       y="4.5999999" />
    <rect
       style="fill:#5fff97;fill-opacity:1;stroke:#ff5f5f;stroke-width:0;stroke-linejoin:miter;stroke-dasharray:none;stroke-opacity:1"
       id="rect20"
       width="3.2"
       height="3.2"
       x="-2.8050001"
       y="1.4" />
    <rect
       style="fill:#5fff97;fill-opacity:1;stroke:#ff5f5f;stroke-width:0;stroke-linejoin:miter;stroke-dasharray:none;stroke-opacity:1"
       id="rect15"
       width="2.5599999"
       height="2.5599999"
       x="4.915"
       y="0.72000003" />
    <rect
       style="fill:#5fff97;fill-opacity:1;stroke:#ff5f5f;stroke-width:0;stroke-linejoin:miter;stroke-dasharray:none;stroke-opacity:1"
       id="rect15-5"
       width="2.24"
       height="2.24"
       x="6.0749998"
       y="-3.3199999" />
    <rect
       style="fill:#5fff97;fill-opacity:1;stroke:#ff5f5f;stroke-width:0;stroke-linejoin:miter;stroke-dasharray:none;stroke-opacity:1"
       id="rect15-9"
       width="3.2"
       height="3.2"
       x="3.5949998"
       y="4.5999999" />
    <rect
       style="fill:#5fff97;fill-opacity:1;stroke:#ff5f5f;stroke-width:0;stroke-linejoin:miter;stroke-dasharray:none;stroke-opacity:1"
       id="rect15-9-8"
       width="3.2"
       height="3.2"
       x="-2.8050001"
       y="4.5999999" />
    <rect
       style="fill:#5fff97;fill-opacity:1;stroke:#ff5f5f;stroke-width:0;stroke-linejoin:miter;stroke-dasharray:none;stroke-opacity:1"
       id="rect15-9-8-2"
       width="3.2"
       height="3.2"
       x="-2.8050001"
       y="-1.8" />
    <rect
       style="fill:#5fff97;fill-opacity:1;stroke:#ff5f5f;stroke-width:0;stroke-linejoin:miter;stroke-dasharray:none;stroke-opacity:1"
       id="rect3"
       width="3.2"
       height="3.2"
       x="0.39499998"
       y="1.4" />
    <rect
       style="fill:#5fff97;fill-opacity:1;stroke:#ff5f5f;stroke-width:0;stroke-linejoin:miter;stroke-dasharray:none;stroke-opacity:1"
       id="rect19"
       width="2.8800001"
       height="2.8800001"
       x="1.5549998"
       y="-3.1399999" />
  </g>
  <circle
     style="fill:#5fff97;fill-opacity:0;stroke:#e0e0e0;stroke-width:1.1;stroke-dasharray:4.4, 8.8;stroke-dashoffset:0;stroke-opacity:1"
     id="path1"
     cy="8.3479815"
     cx="7.6472344"
     r="6.5999999" />
  <path
     style="fill:#5fff97;fill-opacity:0;stroke:none;stroke-dasharray:4, 8;stroke-dashoffset:0;stroke-opacity:1"
     id="path2"
     d="M 8.175938,6.0025871 7.272711,1.3908187 6.3694844,-3.2209501 l 4.4455216,1.5236666 4.445523,1.52366725 -3.542295,3.08810175 z"
     transform="matrix(1.1,0,0,1.1,-0.81123892,-0.5430922)" />
  <path
     style="fill:#e0e0e0;fill-opacity:1;stroke:none;stroke-dasharray:4, 8;stroke-dashoffset:0;stroke-opacity:1"
     id="path3"
     d="M 10.059509,2.0698577 8.9376258,2.7796728 7.815743,3.4894879 7.7619665,2.1630013 7.7081901,0.8365148 8.8838494,1.4531863 Z"
     transform="matrix(1.0998325,0.01919765,-0.01919765,1.0998325,-0.76888172,-0.70644899)" />
  <path
     style="fill:#e0e0e0;fill-opacity:1;stroke:none;stroke-dasharray:4, 8;stroke-dashoffset:0;stroke-opacity:1"
     id="path3-2"
     d="M 10.059509,2.0698577 8.9376258,2.7796728 7.815743,3.4894879 7.7619665,2.1630013 7.7081901,0.8365148 8.8838494,1.4531863 Z"
     transform="matrix(-0.73604367,0.81745931,-0.81745931,-0.73604367,20.014548,7.9549294)" />
  <path
     style="fill:#e0e0e0;fill-opacity:1;stroke:none;stroke-dasharray:4, 8;stroke-dashoffset:0;stroke-opacity:1"
     id="path3-2-5"
     d="M 10.059509,2.0698577 8.9376258,2.7796728 7.815743,3.4894879 7.7619665,2.1630013 7.7081901,0.8365148 8.8838494,1.4531863 Z"
     transform="matrix(1.0918008,0.13405628,-0.13405628,1.0918008,-7.8160108,6.7757352)" />
</svg>
